<svg width="300" height="300" viewBox="0 0 300 300" fill="none" xmlns="http://www.w3.org/2000/svg">
<path d="M150 292.281C224.486 292.281 285.25 235.08 285.25 164.062C285.25 93.0446 224.486 35.8438 150 35.8438C75.5139 35.8438 14.75 93.0446 14.75 164.062C14.75 235.08 75.5139 292.281 150 292.281Z" fill="white" stroke="url(#paint0_linear)" stroke-width="8"/>
<g filter="url(#filter0_d)">
<path d="M82.3816 24.2259C83.5117 22.9157 85.6159 23.3053 86.2862 24.9005C102.961 64.5855 127.599 81.5101 126.438 100.955C103.722 111.944 72.8096 121.438 51.5625 140.961C53.3421 77.9685 61.6133 48.3044 82.3816 24.2259Z" fill="url(#paint1_linear)"/>
<path d="M82.6385 43.2839C83.7343 41.8667 85.9377 42.2615 86.6085 43.9227C97.5484 71.0139 113.225 82.8024 112.474 96.3152C97.5497 104.072 77.2405 110.774 63.2812 124.554C64.4247 81.07 69.647 60.085 82.6385 43.2839Z" fill="url(#paint2_linear)"/>
<path d="M219.962 24.2259C218.832 22.9157 216.728 23.3053 216.058 24.9005C199.383 64.5855 174.745 81.5101 175.906 100.955C198.622 111.944 229.534 121.438 250.781 140.961C249.002 77.9685 240.73 48.3044 219.962 24.2259Z" fill="url(#paint3_linear)"/>
<path d="M219.705 43.2839C218.609 41.8667 216.406 42.2615 215.735 43.9227C204.795 71.0139 189.119 82.8024 189.87 96.3152C204.794 104.072 225.103 110.774 239.062 124.554C237.919 81.07 232.697 60.085 219.705 43.2839Z" fill="url(#paint4_linear)"/>
<path d="M257.812 170.257C257.812 245.257 189.844 260.492 151.172 260.492C112.5 260.492 42.1875 242.914 42.1875 170.257C42.1875 122.364 94.8647 72.9918 151.172 72.9918C207.479 72.9918 257.812 122.364 257.812 170.257Z" fill="#2A2C38"/>
<path d="M257.812 170.257C257.812 245.257 189.844 260.492 151.172 260.492C112.5 260.492 42.1875 242.914 42.1875 170.257C42.1875 122.364 94.8647 72.9918 151.172 72.9918C207.479 72.9918 257.812 122.364 257.812 170.257Z" fill="url(#paint5_radial)" fill-opacity="0.5"/>
<path d="M250.781 170.257C250.781 245.257 187.245 260.492 151.095 260.492C114.946 260.492 49.2188 242.914 49.2188 170.257C49.2188 122.364 91.4062 72.9918 151.095 72.9918C210.785 72.9918 250.781 122.364 250.781 170.257Z" fill="#2A2C38"/>
<path d="M250.781 170.257C250.781 245.257 187.245 260.492 151.095 260.492C114.946 260.492 49.2188 242.914 49.2188 170.257C49.2188 122.364 91.4062 72.9918 151.095 72.9918C210.785 72.9918 250.781 122.364 250.781 170.257Z" fill="url(#paint6_radial)" fill-opacity="0.5"/>
<path d="M23.4375 183.148H58.7573L79.6875 230.023L49.2188 221.82L53.9062 215.961L36.5189 203.418L46.984 199.618L23.4375 183.148Z" fill="#2A2C38"/>
<path d="M23.4375 183.148H58.7573L79.6875 230.023L49.2188 221.82L53.9062 215.961L36.5189 203.418L46.984 199.618L23.4375 183.148Z" fill="url(#paint7_radial)" fill-opacity="0.5"/>
<path d="M276.562 183.148H241.243L220.312 230.023L250.781 221.82L246.094 215.961L263.481 203.418L253.016 199.618L276.562 183.148Z" fill="#2A2C38"/>
<path d="M276.562 183.148H241.243L220.312 230.023L250.781 221.82L246.094 215.961L263.481 203.418L253.016 199.618L276.562 183.148Z" fill="url(#paint8_radial)" fill-opacity="0.5"/>
<g filter="url(#filter1_di)">
<path d="M135.343 144.179C135.343 161.654 120.653 175.82 102.531 175.82C84.4089 175.82 69.7183 161.654 69.7183 144.179C69.7183 126.704 81.437 112.538 103.703 112.538C125.968 112.538 135.343 126.704 135.343 144.179Z" fill="white"/>
<path d="M102.531 176.82C121.17 176.82 136.343 162.24 136.343 144.179C136.343 135.274 133.955 127.099 128.618 121.139C123.263 115.159 115.058 111.538 103.703 111.538C92.3512 111.538 83.5842 115.155 77.6529 121.099C71.7263 127.04 68.7183 135.217 68.7183 144.179C68.7183 162.24 83.8912 176.82 102.531 176.82Z" stroke="#1A1C21" stroke-opacity="0.5" stroke-width="2"/>
</g>
<g filter="url(#filter2_di)">
<path d="M164.789 144.476C164.789 161.951 179.479 176.117 197.601 176.117C215.723 176.117 230.414 161.951 230.414 144.476C230.414 127.002 218.695 112.836 196.429 112.836C174.164 112.836 164.789 127.002 164.789 144.476Z" fill="white"/>
<path d="M197.601 177.117C178.962 177.117 163.789 162.537 163.789 144.476C163.789 135.571 166.177 127.396 171.514 121.436C176.869 115.456 185.074 111.836 196.429 111.836C207.781 111.836 216.548 115.452 222.479 121.397C228.406 127.337 231.414 135.514 231.414 144.476C231.414 162.537 216.241 177.117 197.601 177.117Z" stroke="#1A1C21" stroke-opacity="0.5" stroke-width="2"/>
</g>
<circle cx="197.205" cy="144.229" r="29.5775" fill="#E2C26E"/>
<circle cx="197.205" cy="144.229" r="27.4648" fill="#1C1D23"/>
<g filter="url(#filter3_d)">
<path d="M164.789 144.179C182.771 108.848 221.621 119.313 230.414 144.179C230.414 126.704 218.695 112.538 196.429 112.538C174.164 112.538 164.789 126.704 164.789 144.179Z" fill="url(#paint9_linear)"/>
</g>
<ellipse rx="6.33803" ry="6.33803" transform="matrix(1 0 0 -1 202.817 131.553)" fill="white"/>
<circle r="3.16901" transform="matrix(1 0 0 -1 214.437 155.848)" fill="white"/>
<circle cx="102.927" cy="143.931" r="29.5775" fill="#E2C26E"/>
<ellipse cx="102.927" cy="143.931" rx="27.4648" ry="27.4648" fill="#1C1D23"/>
<ellipse rx="6.33803" ry="6.33803" transform="matrix(1 0 0 -1 109.265 131.255)" fill="white"/>
<g filter="url(#filter4_d)">
<path d="M135.343 144.179C117.361 108.848 78.5111 119.313 69.7183 144.179C69.7183 126.704 81.437 112.538 103.703 112.538C125.968 112.538 135.343 126.704 135.343 144.179Z" fill="url(#paint10_linear)"/>
</g>
<circle r="3.16901" transform="matrix(1 0 0 -1 84.9692 155.551)" fill="white"/>
<path d="M152.344 187.836V173.773C149.063 173.773 144.141 174.359 140.859 174.359C137.578 174.359 135.938 177.875 135.938 179.632C135.938 181.39 140.859 184.32 145.781 184.32C149.719 184.32 148.828 187.836 152.344 187.836Z" fill="url(#paint11_linear)"/>
<path d="M152.344 187.836V173.773C155.625 173.773 160.547 174.359 163.828 174.359C167.109 174.359 168.75 177.875 168.75 179.632C168.75 181.39 163.828 184.32 158.906 184.32C154.969 184.32 155.859 187.836 152.344 187.836Z" fill="url(#paint12_linear)"/>
<path d="M143.662 209.722L152.113 205.496L160.563 209.722V217.398C160.563 220.159 158.325 222.398 155.563 222.398H148.662C145.901 222.398 143.662 220.159 143.662 217.398V209.722Z" fill="#EA2942"/>
<g filter="url(#filter5_d)">
<path d="M147.656 212.445C139.826 216.919 114.91 219.806 109.859 205.496C117.253 213.947 135.203 215.187 144.141 208.929C149.968 204.849 151.59 195.73 152.344 190.179C152.95 190.179 154.556 189.437 154.687 192.523C154.904 197.604 155.859 207.757 147.656 212.445Z" fill="#1C1D23"/>
<path d="M157.178 212.445C165.008 216.919 190.372 220.863 194.366 205.496C188.028 215.003 169.631 215.187 160.694 208.929C154.866 204.849 153.245 195.73 152.491 190.179C151.884 190.179 150.278 189.437 150.147 192.523C149.93 197.604 148.975 207.757 157.178 212.445Z" fill="#1C1D23"/>
</g>
</g>
<defs>
<filter id="filter0_d" x="3.4375" y="7.4375" width="293.125" height="277.054" filterUnits="userSpaceOnUse" color-interpolation-filters="sRGB">
<feFlood flood-opacity="0" result="BackgroundImageFix"/>
<feColorMatrix in="SourceAlpha" type="matrix" values="0 0 0 0 0 0 0 0 0 0 0 0 0 0 0 0 0 0 127 0"/>
<feOffset dy="4"/>
<feGaussianBlur stdDeviation="10"/>
<feColorMatrix type="matrix" values="0 0 0 0 0 0 0 0 0 0 0 0 0 0 0 0 0 0 0.25 0"/>
<feBlend mode="normal" in2="BackgroundImageFix" result="effect1_dropShadow"/>
<feBlend mode="normal" in="SourceGraphic" in2="effect1_dropShadow" result="shape"/>
</filter>
<filter id="filter1_di" x="55.7183" y="98.5384" width="93.625" height="91.2812" filterUnits="userSpaceOnUse" color-interpolation-filters="sRGB">
<feFlood flood-opacity="0" result="BackgroundImageFix"/>
<feColorMatrix in="SourceAlpha" type="matrix" values="0 0 0 0 0 0 0 0 0 0 0 0 0 0 0 0 0 0 127 0"/>
<feOffset/>
<feGaussianBlur stdDeviation="6"/>
<feColorMatrix type="matrix" values="0 0 0 0 0 0 0 0 0 0 0 0 0 0 0 0 0 0 0.35 0"/>
<feBlend mode="normal" in2="BackgroundImageFix" result="effect1_dropShadow"/>
<feBlend mode="normal" in="SourceGraphic" in2="effect1_dropShadow" result="shape"/>
<feColorMatrix in="SourceAlpha" type="matrix" values="0 0 0 0 0 0 0 0 0 0 0 0 0 0 0 0 0 0 127 0" result="hardAlpha"/>
<feOffset/>
<feGaussianBlur stdDeviation="4"/>
<feComposite in2="hardAlpha" operator="arithmetic" k2="-1" k3="1"/>
<feColorMatrix type="matrix" values="0 0 0 0 0 0 0 0 0 0 0 0 0 0 0 0 0 0 0.25 0"/>
<feBlend mode="normal" in2="shape" result="effect2_innerShadow"/>
</filter>
<filter id="filter2_di" x="150.789" y="98.8355" width="93.625" height="91.2812" filterUnits="userSpaceOnUse" color-interpolation-filters="sRGB">
<feFlood flood-opacity="0" result="BackgroundImageFix"/>
<feColorMatrix in="SourceAlpha" type="matrix" values="0 0 0 0 0 0 0 0 0 0 0 0 0 0 0 0 0 0 127 0"/>
<feOffset/>
<feGaussianBlur stdDeviation="6"/>
<feColorMatrix type="matrix" values="0 0 0 0 0 0 0 0 0 0 0 0 0 0 0 0 0 0 0.35 0"/>
<feBlend mode="normal" in2="BackgroundImageFix" result="effect1_dropShadow"/>
<feBlend mode="normal" in="SourceGraphic" in2="effect1_dropShadow" result="shape"/>
<feColorMatrix in="SourceAlpha" type="matrix" values="0 0 0 0 0 0 0 0 0 0 0 0 0 0 0 0 0 0 127 0" result="hardAlpha"/>
<feOffset/>
<feGaussianBlur stdDeviation="4"/>
<feComposite in2="hardAlpha" operator="arithmetic" k2="-1" k3="1"/>
<feColorMatrix type="matrix" values="0 0 0 0 0 0 0 0 0 0 0 0 0 0 0 0 0 0 0.25 0"/>
<feBlend mode="normal" in2="shape" result="effect2_innerShadow"/>
</filter>
<filter id="filter3_d" x="160.789" y="110.538" width="73.625" height="39.6406" filterUnits="userSpaceOnUse" color-interpolation-filters="sRGB">
<feFlood flood-opacity="0" result="BackgroundImageFix"/>
<feColorMatrix in="SourceAlpha" type="matrix" values="0 0 0 0 0 0 0 0 0 0 0 0 0 0 0 0 0 0 127 0"/>
<feOffset dy="2"/>
<feGaussianBlur stdDeviation="2"/>
<feColorMatrix type="matrix" values="0 0 0 0 0 0 0 0 0 0 0 0 0 0 0 0 0 0 0.35 0"/>
<feBlend mode="normal" in2="BackgroundImageFix" result="effect1_dropShadow"/>
<feBlend mode="normal" in="SourceGraphic" in2="effect1_dropShadow" result="shape"/>
</filter>
<filter id="filter4_d" x="65.7183" y="110.538" width="73.625" height="39.6406" filterUnits="userSpaceOnUse" color-interpolation-filters="sRGB">
<feFlood flood-opacity="0" result="BackgroundImageFix"/>
<feColorMatrix in="SourceAlpha" type="matrix" values="0 0 0 0 0 0 0 0 0 0 0 0 0 0 0 0 0 0 127 0"/>
<feOffset dy="2"/>
<feGaussianBlur stdDeviation="2"/>
<feColorMatrix type="matrix" values="0 0 0 0 0 0 0 0 0 0 0 0 0 0 0 0 0 0 0.35 0"/>
<feBlend mode="normal" in2="BackgroundImageFix" result="effect1_dropShadow"/>
<feBlend mode="normal" in="SourceGraphic" in2="effect1_dropShadow" result="shape"/>
</filter>
<filter id="filter5_d" x="107.859" y="189.101" width="88.507" height="30.3536" filterUnits="userSpaceOnUse" color-interpolation-filters="sRGB">
<feFlood flood-opacity="0" result="BackgroundImageFix"/>
<feColorMatrix in="SourceAlpha" type="matrix" values="0 0 0 0 0 0 0 0 0 0 0 0 0 0 0 0 0 0 127 0"/>
<feOffset dy="1"/>
<feGaussianBlur stdDeviation="1"/>
<feColorMatrix type="matrix" values="0 0 0 0 0 0 0 0 0 0 0 0 0 0 0 0 0 0 0.35 0"/>
<feBlend mode="normal" in2="BackgroundImageFix" result="effect1_dropShadow"/>
<feBlend mode="normal" in="SourceGraphic" in2="effect1_dropShadow" result="shape"/>
</filter>
<linearGradient id="paint0_linear" x1="150" y1="30.4687" x2="150" y2="298.828" gradientUnits="userSpaceOnUse">
<stop stop-color="#CACACA"/>
<stop offset="1" stop-color="#8E8E8E"/>
</linearGradient>
<linearGradient id="paint1_linear" x1="79.6875" y1="21.4293" x2="79.6875" y2="140.961" gradientUnits="userSpaceOnUse">
<stop stop-color="#2A2C38"/>
<stop offset="1" stop-color="#1A1C22"/>
</linearGradient>
<linearGradient id="paint2_linear" x1="78.5156" y1="40.1793" x2="87.8906" y2="124.554" gradientUnits="userSpaceOnUse">
<stop offset="0.355908" stop-color="#EA2942"/>
<stop offset="0.850474" stop-color="#B71A2E"/>
</linearGradient>
<linearGradient id="paint3_linear" x1="222.656" y1="21.4293" x2="222.656" y2="140.961" gradientUnits="userSpaceOnUse">
<stop stop-color="#2A2C38"/>
<stop offset="1" stop-color="#1A1C22"/>
</linearGradient>
<linearGradient id="paint4_linear" x1="223.828" y1="40.1793" x2="214.453" y2="124.554" gradientUnits="userSpaceOnUse">
<stop offset="0.355908" stop-color="#EA2942"/>
<stop offset="0.850474" stop-color="#B71A2E"/>
</linearGradient>
<radialGradient id="paint5_radial" cx="0" cy="0" r="1" gradientUnits="userSpaceOnUse" gradientTransform="translate(151.172 159.711) rotate(90) scale(86.7187 101.953)">
<stop offset="0.652109" stop-color="#22242C"/>
<stop offset="1" stop-color="#0B0C0F"/>
</radialGradient>
<radialGradient id="paint6_radial" cx="0" cy="0" r="1" gradientUnits="userSpaceOnUse" gradientTransform="translate(248.132 204.828) rotate(90) scale(21.6797 26.5965)">
<stop offset="0.652109" stop-color="#262832"/>
<stop offset="1" stop-color="#181A21"/>
</radialGradient>
<radialGradient id="paint7_radial" cx="0" cy="0" r="1" gradientUnits="userSpaceOnUse" gradientTransform="translate(248.132 204.828) rotate(90) scale(21.6797 26.5965)">
<stop offset="0.652109" stop-color="#262832"/>
<stop offset="1" stop-color="#181A21"/>
</radialGradient>
<radialGradient id="paint8_radial" cx="0" cy="0" r="1" gradientUnits="userSpaceOnUse" gradientTransform="translate(248.132 204.828) rotate(90) scale(21.6797 26.5965)">
<stop offset="0.652109" stop-color="#262832"/>
<stop offset="1" stop-color="#181A21"/>
</radialGradient>
<linearGradient id="paint9_linear" x1="197.601" y1="112.538" x2="197.601" y2="144.179" gradientUnits="userSpaceOnUse">
<stop stop-color="#1B1C21"/>
<stop offset="1" stop-color="#50535F"/>
</linearGradient>
<linearGradient id="paint10_linear" x1="102.531" y1="112.538" x2="102.531" y2="144.179" gradientUnits="userSpaceOnUse">
<stop stop-color="#1B1C21"/>
<stop offset="1" stop-color="#50535F"/>
</linearGradient>
<linearGradient id="paint11_linear" x1="152.344" y1="167.401" x2="152.344" y2="198.382" gradientUnits="userSpaceOnUse">
<stop offset="0.363214" stop-color="#A8A8A8"/>
<stop offset="0.847937" stop-color="#363636"/>
</linearGradient>
<linearGradient id="paint12_linear" x1="152.344" y1="167.401" x2="152.344" y2="198.382" gradientUnits="userSpaceOnUse">
<stop offset="0.363214" stop-color="#A8A8A8"/>
<stop offset="0.847937" stop-color="#363636"/>
</linearGradient>
</defs>
</svg>
